<svg width="143" height="66" viewBox="0 0 143 66" fill="none" xmlns="http://www.w3.org/2000/svg">
<g id="tonbo logo decoration" clip-path="url(#clip0_42_81)">
<path id="Vector" d="M50.8436 36.9588H60.3773V39.5989H54.0246V42.239H38.135V39.5989H28.6013V36.9588H19.0675V34.3187H12.7117V31.6786H9.53378V29.0385H6.35587V26.401H3.17795V21.1182H3.05176e-05V15.838H3.17795V13.2005H12.7117V15.838H19.0675V18.4807H22.2455V21.1182H25.4234V23.7583H28.6013V26.3984H31.7792V29.0385H38.135V31.6786H44.4909V34.3187H50.8436V36.9588Z" fill="#654FF0"/>
<path id="Vector_2" d="M66.7332 31.6786V34.3187H60.3773V31.6786H54.0246V29.0385H47.6688V26.3984H41.313V23.7583H34.9571V21.1182H28.6013V18.4807H25.4234V15.838H22.2455V13.2005H19.0675V7.92032H15.8896V2.64011H19.0675V0H28.6013V2.64011H34.9571V5.28021H38.135V7.92032H41.313V10.5604H44.4909V13.2005H47.6688V15.838H50.8436V18.4807H54.0246V21.1182H57.1994V23.7583H60.3773V26.3984H63.5552V31.6786H66.7332Z" fill="#654FF0"/>
<path id="Vector_3" d="M73.0889 23.7583H76.2668V26.3984H73.0889V23.7583Z" fill="#654FF0"/>
<path id="Vector_4" d="M82.6227 26.3984H85.8007V29.0385H82.6227V26.3984Z" fill="#654FF0"/>
<path id="Vector_5" d="M79.4448 29.0385V31.6786H76.2669V36.9588H73.089V39.5989H69.9111V42.239H66.7332V44.8791H63.5552V47.5192H60.3773V50.1594H57.1994V52.7995H54.0246V55.4396H50.8436V58.0797H47.6688V60.7198H41.313V63.3599H34.9571V60.7198H38.135V58.0797H44.4909V55.4396H47.6688V52.7995H50.8436V50.1594H54.0246V47.5192H57.1994V44.8791H60.3773V42.239H63.5552V39.5989H66.7332V36.9588H69.9111V31.6786H73.089V29.0385H79.4448Z" fill="#654FF0"/>
<path id="Vector_6" d="M22.2454 63.3599H34.9571V66H22.2454V63.3599Z" fill="#654FF0"/>
<path id="Vector_7" d="M143 29.0385V31.6786H139.822V34.3187H136.644V36.9588H130.288V39.5989H127.11V42.239H130.288V44.8791H133.466V50.1594H130.288V52.7995H117.58V55.4396H95.3344V52.7995H85.8006V50.1594H79.4448V47.5192H76.2669V44.8791H73.089V42.239H79.4448V44.8791H101.69V42.239H88.9785V39.5989H79.4448V36.9588H85.8006V34.3187H92.1565V31.6786H98.5123V29.0385H108.046V26.3984H120.755V23.7583H133.466V26.3984H139.822V29.0385H143Z" fill="#654FF0"/>
</g>
<defs>
<clipPath id="clip0_42_81">
<rect width="143" height="66" fill="white" transform="matrix(-1 0 0 1 143 0)"/>
</clipPath>
</defs>
</svg>
