<svg width="202" height="34" viewBox="0 0 202 34" fill="none" xmlns="http://www.w3.org/2000/svg">
<mask id="mask0_42_68" style="mask-type:alpha" maskUnits="userSpaceOnUse" x="13" y="2" width="151" height="32">
<rect x="13" y="2" width="151" height="32" fill="#D9D9D9"/>
</mask>
<g mask="url(#mask0_42_68)">
<path d="M11.1923 21.7692H5V27.9615H11.1923V21.7692Z" fill="#222623"/>
<path d="M11.1923 27.9615H5V34.1538H11.1923V27.9615Z" fill="#222623"/>
<path d="M11.1923 34.1538H5V40.3462H11.1923V34.1538Z" fill="#222623"/>
<path d="M11.1923 40.3462H5V46.5385H11.1923V40.3462Z" fill="#222623"/>
<path d="M11.1923 46.5385H5V52.7308H11.1923V46.5385Z" fill="#222623"/>
<path d="M11.1923 52.7308H5V58.9231H11.1923V52.7308Z" fill="#222623"/>
<path d="M11.1923 58.9231H5V65.1154H11.1923V58.9231Z" fill="#F5FF0B"/>
<path d="M11.1923 65.1154H5V71.3077H11.1923V65.1154Z" fill="#F5FF0B"/>
<path d="M11.1923 71.3077H5V77.5H11.1923V71.3077Z" fill="#F5FF0B"/>
<path d="M11.1923 77.5H5V83.6923H11.1923V77.5Z" fill="#F5FF0B"/>
<path d="M11.1923 83.6923H5V89.8846H11.1923V83.6923Z" fill="#F5FF0B"/>
<path d="M11.1923 89.8846H5V96.0769H11.1923V89.8846Z" fill="#F5FF0B"/>
<path d="M11.1923 96.0769H5V102.269H11.1923V96.0769Z" fill="#F5FF0B"/>
<path d="M11.1923 102.269H5V108.462H11.1923V102.269Z" fill="#222623"/>
<path d="M11.1923 108.462H5V114.654H11.1923V108.462Z" fill="#F5FF0B"/>
<path d="M11.1923 114.654H5V120.846H11.1923V114.654Z" fill="#F5FF0B"/>
<path d="M11.1923 120.846H5V127.038H11.1923V120.846Z" fill="#F5FF0B"/>
<path d="M17.3846 15.5769H11.1923L11.1923 21.7692L17.3846 21.7692V15.5769Z" fill="#222623"/>
<path d="M11.1923 15.5769H5V21.7692H11.1923L11.1923 15.5769Z" fill="#222623"/>
<path d="M11.1923 9.38462H5V15.5769H11.1923L11.1923 9.38462Z" fill="#222623"/>
<path d="M17.3846 21.7692L11.1923 21.7692V27.9615H17.3846V21.7692Z" fill="#222623"/>
<path d="M17.3846 27.9615H11.1923V34.1538H17.3846V27.9615Z" fill="#222623"/>
<path d="M17.3846 34.1538H11.1923V40.3462H17.3846V34.1538Z" fill="#222623"/>
<path d="M17.3846 40.3462H11.1923V46.5385H17.3846V40.3462Z" fill="#222623"/>
<path d="M17.3846 46.5385H11.1923V52.7308H17.3846V46.5385Z" fill="#222623"/>
<path d="M17.3846 52.7308H11.1923V58.9231H17.3846V52.7308Z" fill="#222623"/>
<path d="M17.3846 58.9231H11.1923V65.1154H17.3846V58.9231Z" fill="#F5FF0B"/>
<path d="M17.3846 65.1154H11.1923V71.3077H17.3846V65.1154Z" fill="#F5FF0B"/>
<path d="M17.3846 71.3077H11.1923V77.5H17.3846V71.3077Z" fill="#F5FF0B"/>
<path d="M17.3846 77.5H11.1923V83.6923H17.3846V77.5Z" fill="#F5FF0B"/>
<path d="M17.3846 83.6923H11.1923V89.8846H17.3846V83.6923Z" fill="#F5FF0B"/>
<path d="M17.3846 89.8846H11.1923V96.0769H17.3846V89.8846Z" fill="#F5FF0B"/>
<path d="M17.3846 96.0769H11.1923V102.269H17.3846V96.0769Z" fill="#F5FF0B"/>
<path d="M17.3846 102.269H11.1923V108.462H17.3846V102.269Z" fill="#222623"/>
<path d="M17.3846 108.462H11.1923V114.654H17.3846V108.462Z" fill="#222623"/>
<path d="M17.3846 114.654H11.1923V120.846H17.3846V114.654Z" fill="#F5FF0B"/>
<path d="M17.3846 120.846H11.1923V127.038H17.3846V120.846Z" fill="#F5FF0B"/>
<path d="M23.5769 9.38462H17.3846L17.3846 15.5769H23.5769V9.38462Z" fill="#F5FF0B"/>
<path d="M17.3846 9.38462H11.1923L11.1923 15.5769H17.3846L17.3846 9.38462Z" fill="#222623"/>
<path d="M11.1923 3.19231H5V9.38462H11.1923V3.19231Z" fill="#222623"/>
<path d="M17.3846 3.19231H11.1923V9.38462H17.3846L17.3846 3.19231Z" fill="#222623"/>
<path d="M23.5769 3.19231H17.3846L17.3846 9.38462H23.5769V3.19231Z" fill="#222623"/>
<path d="M23.5769 15.5769H17.3846V21.7692H23.5769V15.5769Z" fill="#222623"/>
<path d="M23.5769 21.7692H17.3846V27.9615H23.5769V21.7692Z" fill="#222623"/>
<path d="M23.5769 27.9615H17.3846V34.1538H23.5769V27.9615Z" fill="#222623"/>
<path d="M23.5769 34.1538H17.3846V40.3462H23.5769V34.1538Z" fill="#222623"/>
<path d="M23.5769 40.3462H17.3846V46.5385H23.5769V40.3462Z" fill="#222623"/>
<path d="M23.5769 46.5385H17.3846V52.7308H23.5769V46.5385Z" fill="#222623"/>
<path d="M23.5769 52.7308H17.3846V58.9231H23.5769V52.7308Z" fill="#222623"/>
<path d="M23.5769 58.9231H17.3846V65.1154H23.5769V58.9231Z" fill="#222623"/>
<path d="M23.5769 65.1154H17.3846V71.3077H23.5769V65.1154Z" fill="#F5FF0B"/>
<path d="M23.5769 71.3077H17.3846V77.5H23.5769V71.3077Z" fill="#F5FF0B"/>
<path d="M23.5769 77.5H17.3846V83.6923H23.5769V77.5Z" fill="#F5FF0B"/>
<path d="M23.5769 83.6923H17.3846V89.8846H23.5769V83.6923Z" fill="#F5FF0B"/>
<path d="M23.5769 89.8846H17.3846V96.0769H23.5769V89.8846Z" fill="#F5FF0B"/>
<path d="M23.5769 96.0769H17.3846V102.269H23.5769V96.0769Z" fill="#F5FF0B"/>
<path d="M23.5769 102.269H17.3846V108.462H23.5769V102.269Z" fill="#F5FF0B"/>
<path d="M23.5769 108.462H17.3846V114.654H23.5769V108.462Z" fill="#222623"/>
<path d="M23.5769 114.654H17.3846V120.846H23.5769V114.654Z" fill="#222623"/>
<path d="M23.5769 120.846H17.3846V127.038H23.5769V120.846Z" fill="#F5FF0B"/>
<path d="M29.7692 9.38462H23.5769V15.5769H29.7692V9.38462Z" fill="#F5FF0B"/>
<path d="M29.7692 15.5769H23.5769V21.7692H29.7692V15.5769Z" fill="#F5FF0B"/>
<path d="M29.7692 21.7692H23.5769V27.9615H29.7692V21.7692Z" fill="#F5FF0B"/>
<path d="M29.7692 27.9615H23.5769V34.1538H29.7692V27.9615Z" fill="#222623"/>
<path d="M29.7692 34.1538H23.5769V40.3462H29.7692V34.1538Z" fill="#222623"/>
<path d="M29.7692 40.3462H23.5769V46.5385H29.7692V40.3462Z" fill="#222623"/>
<path d="M29.7692 46.5385H23.5769V52.7308H29.7692V46.5385Z" fill="#222623"/>
<path d="M29.7692 52.7308H23.5769V58.9231H29.7692V52.7308Z" fill="#222623"/>
<path d="M29.7692 58.9231H23.5769V65.1154H29.7692V58.9231Z" fill="#222623"/>
<path d="M29.7692 65.1154H23.5769V71.3077H29.7692V65.1154Z" fill="#F5FF0B"/>
<path d="M29.7692 71.3077H23.5769V77.5H29.7692V71.3077Z" fill="#F5FF0B"/>
<path d="M29.7692 77.5H23.5769V83.6923H29.7692V77.5Z" fill="#F5FF0B"/>
<path d="M29.7692 83.6923H23.5769V89.8846H29.7692V83.6923Z" fill="#F5FF0B"/>
<path d="M29.7692 89.8846H23.5769V96.0769H29.7692V89.8846Z" fill="#F5FF0B"/>
<path d="M29.7692 96.0769H23.5769V102.269H29.7692V96.0769Z" fill="#F5FF0B"/>
<path d="M29.7692 102.269H23.5769V108.462H29.7692V102.269Z" fill="#F5FF0B"/>
<path d="M29.7692 108.462H23.5769V114.654H29.7692V108.462Z" fill="#222623"/>
<path d="M29.7692 114.654H23.5769V120.846H29.7692V114.654Z" fill="#222623"/>
<path d="M29.7692 120.846H23.5769V127.038H29.7692V120.846Z" fill="#222623"/>
<path d="M35.9615 9.38462H29.7692V15.5769H35.9615V9.38462Z" fill="#F5FF0B"/>
<path d="M35.9615 15.5769H29.7692V21.7692H35.9615V15.5769Z" fill="#222623"/>
<path d="M35.9615 21.7692H29.7692V27.9615H35.9615V21.7692Z" fill="#F5FF0B"/>
<path d="M35.9615 27.9615H29.7692V34.1538H35.9615V27.9615Z" fill="#222623"/>
<path d="M35.9615 34.1538H29.7692V40.3462H35.9615V34.1538Z" fill="#222623"/>
<path d="M35.9615 40.3462H29.7692V46.5385H35.9615V40.3462Z" fill="#222623"/>
<path d="M35.9615 46.5385H29.7692V52.7308H35.9615V46.5385Z" fill="#222623"/>
<path d="M35.9615 52.7308H29.7692V58.9231H35.9615V52.7308Z" fill="#222623"/>
<path d="M35.9615 58.9231H29.7692V65.1154H35.9615V58.9231Z" fill="#222623"/>
<path d="M35.9615 65.1154H29.7692V71.3077H35.9615V65.1154Z" fill="#222623"/>
<path d="M35.9615 71.3077H29.7692V77.5H35.9615V71.3077Z" fill="#F5FF0B"/>
<path d="M35.9615 77.5H29.7692V83.6923H35.9615V77.5Z" fill="#F5FF0B"/>
<path d="M35.9615 83.6923H29.7692V89.8846H35.9615V83.6923Z" fill="#F5FF0B"/>
<path d="M35.9615 89.8846H29.7692V96.0769H35.9615V89.8846Z" fill="#F5FF0B"/>
<path d="M35.9615 96.0769H29.7692V102.269H35.9615V96.0769Z" fill="#F5FF0B"/>
<path d="M35.9615 102.269H29.7692V108.462H35.9615V102.269Z" fill="#F5FF0B"/>
<path d="M35.9615 108.462H29.7692V114.654H35.9615V108.462Z" fill="#F5FF0B"/>
<path d="M35.9615 114.654H29.7692V120.846H35.9615V114.654Z" fill="#222623"/>
<path d="M35.9615 120.846H29.7692V127.038H35.9615V120.846Z" fill="#222623"/>
<path d="M42.1538 9.38462H35.9615V15.5769H42.1538V9.38462Z" fill="#222623"/>
<path d="M42.1538 15.5769H35.9615V21.7692H42.1538V15.5769Z" fill="#222623"/>
<path d="M42.1538 21.7692H35.9615V27.9615H42.1538V21.7692Z" fill="#222623"/>
<path d="M42.1538 27.9615H35.9615V34.1538H42.1538V27.9615Z" fill="#222623"/>
<path d="M42.1538 34.1538H35.9615V40.3462H42.1538V34.1538Z" fill="#222623"/>
<path d="M42.1538 40.3462H35.9615V46.5385H42.1538V40.3462Z" fill="#222623"/>
<path d="M42.1538 46.5385H35.9615V52.7308H42.1538V46.5385Z" fill="#222623"/>
<path d="M42.1538 52.7308H35.9615V58.9231H42.1538V52.7308Z" fill="#222623"/>
<path d="M42.1538 58.9231H35.9615V65.1154H42.1538V58.9231Z" fill="#222623"/>
<path d="M42.1538 65.1154H35.9615V71.3077H42.1538V65.1154Z" fill="#222623"/>
<path d="M42.1538 71.3077H35.9615V77.5H42.1538V71.3077Z" fill="#222623"/>
<path d="M42.1538 77.5H35.9615V83.6923H42.1538V77.5Z" fill="#F5FF0B"/>
<path d="M42.1538 83.6923H35.9615V89.8846H42.1538V83.6923Z" fill="#F5FF0B"/>
<path d="M42.1538 89.8846H35.9615V96.0769H42.1538V89.8846Z" fill="#F5FF0B"/>
<path d="M42.1538 96.0769H35.9615V102.269H42.1538V96.0769Z" fill="#F5FF0B"/>
<path d="M42.1538 102.269H35.9615V108.462H42.1538V102.269Z" fill="#F5FF0B"/>
<path d="M42.1538 108.462H35.9615V114.654H42.1538V108.462Z" fill="#F5FF0B"/>
<path d="M42.1538 114.654H35.9615V120.846H42.1538V114.654Z" fill="#222623"/>
<path d="M42.1538 120.846H35.9615V127.038H42.1538V120.846Z" fill="#222623"/>
<path d="M48.3462 9.38462H42.1538V15.5769H48.3462V9.38462Z" fill="#222623"/>
<path d="M48.3462 15.5769H42.1538V21.7692H48.3462V15.5769Z" fill="#222623"/>
<path d="M48.3462 21.7692H42.1538V27.9615H48.3462V21.7692Z" fill="#222623"/>
<path d="M48.3462 27.9615H42.1538V34.1538H48.3462V27.9615Z" fill="#222623"/>
<path d="M48.3462 34.1538H42.1538V40.3462H48.3462V34.1538Z" fill="#222623"/>
<path d="M48.3462 40.3462H42.1538V46.5385H48.3462V40.3462Z" fill="#222623"/>
<path d="M48.3462 46.5385H42.1538V52.7308H48.3462V46.5385Z" fill="#222623"/>
<path d="M48.3462 52.7308H42.1538V58.9231H48.3462V52.7308Z" fill="#222623"/>
<path d="M48.3462 58.9231H42.1538V65.1154H48.3462V58.9231Z" fill="#222623"/>
<path d="M48.3462 65.1154H42.1538V71.3077H48.3462V65.1154Z" fill="#222623"/>
<path d="M48.3462 71.3077H42.1538V77.5H48.3462V71.3077Z" fill="#222623"/>
<path d="M48.3462 77.5H42.1538V83.6923H48.3462V77.5Z" fill="#222623"/>
<path d="M48.3462 83.6923H42.1538V89.8846H48.3462V83.6923Z" fill="#F5FF0B"/>
<path d="M48.3462 89.8846H42.1538V96.0769H48.3462V89.8846Z" fill="#F5FF0B"/>
<path d="M48.3462 96.0769H42.1538V102.269H48.3462V96.0769Z" fill="#F5FF0B"/>
<path d="M48.3462 102.269H42.1538V108.462H48.3462V102.269Z" fill="#F5FF0B"/>
<path d="M48.3462 108.462H42.1538V114.654H48.3462V108.462Z" fill="#F5FF0B"/>
<path d="M48.3462 114.654H42.1538V120.846H48.3462V114.654Z" fill="#F5FF0B"/>
<path d="M48.3462 120.846H42.1538V127.038H48.3462V120.846Z" fill="#222623"/>
<path d="M54.5385 9.38462H48.3462V15.5769H54.5385V9.38462Z" fill="#222623"/>
<path d="M54.5385 15.5769H48.3462V21.7692H54.5385V15.5769Z" fill="#F5FF0B"/>
<path d="M54.5385 21.7692H48.3462V27.9615H54.5385V21.7692Z" fill="#F5FF0B"/>
<path d="M54.5385 27.9615H48.3462V34.1538H54.5385V27.9615Z" fill="#222623"/>
<path d="M54.5385 34.1538H48.3462V40.3462H54.5385V34.1538Z" fill="#222623"/>
<path d="M54.5385 40.3462H48.3462V46.5385H54.5385V40.3462Z" fill="#222623"/>
<path d="M54.5385 46.5385H48.3462V52.7308H54.5385V46.5385Z" fill="#222623"/>
<path d="M54.5385 52.7308H48.3462V58.9231H54.5385V52.7308Z" fill="#222623"/>
<path d="M54.5385 58.9231H48.3462V65.1154H54.5385V58.9231Z" fill="#222623"/>
<path d="M54.5385 65.1154H48.3462V71.3077H54.5385V65.1154Z" fill="#222623"/>
<path d="M54.5385 71.3077H48.3462V77.5H54.5385V71.3077Z" fill="#222623"/>
<path d="M54.5385 77.5H48.3462V83.6923H54.5385V77.5Z" fill="#222623"/>
<path d="M54.5385 83.6923H48.3462V89.8846H54.5385V83.6923Z" fill="#222623"/>
<path d="M54.5385 89.8846H48.3462V96.0769H54.5385V89.8846Z" fill="#F5FF0B"/>
<path d="M54.5385 96.0769H48.3462V102.269H54.5385V96.0769Z" fill="#F5FF0B"/>
<path d="M54.5385 102.269H48.3462V108.462H54.5385V102.269Z" fill="#F5FF0B"/>
<path d="M54.5385 108.462H48.3462V114.654H54.5385V108.462Z" fill="#F5FF0B"/>
<path d="M54.5385 114.654H48.3462V120.846H54.5385V114.654Z" fill="#F5FF0B"/>
<path d="M54.5385 120.846H48.3462V127.038H54.5385V120.846Z" fill="#222623"/>
<path d="M60.7308 9.38462H54.5385V15.5769H60.7308V9.38462Z" fill="#F5FF0B"/>
<path d="M60.7308 15.5769H54.5385V21.7692H60.7308V15.5769Z" fill="#222623"/>
<path d="M60.7308 21.7692H54.5385V27.9615H60.7308V21.7692Z" fill="#F5FF0B"/>
<path d="M60.7308 27.9615H54.5385V34.1538H60.7308V27.9615Z" fill="#222623"/>
<path d="M60.7308 34.1538H54.5385V40.3462H60.7308V34.1538Z" fill="#222623"/>
<path d="M60.7308 40.3462H54.5385V46.5385H60.7308V40.3462Z" fill="#222623"/>
<path d="M60.7308 46.5385H54.5385V52.7308H60.7308V46.5385Z" fill="#222623"/>
<path d="M60.7308 52.7308H54.5385V58.9231H60.7308V52.7308Z" fill="#222623"/>
<path d="M60.7308 58.9231H54.5385V65.1154H60.7308V58.9231Z" fill="#222623"/>
<path d="M60.7308 65.1154H54.5385V71.3077H60.7308V65.1154Z" fill="#222623"/>
<path d="M60.7308 71.3077H54.5385V77.5H60.7308V71.3077Z" fill="#222623"/>
<path d="M60.7308 77.5H54.5385V83.6923H60.7308V77.5Z" fill="#222623"/>
<path d="M60.7308 83.6923H54.5385V89.8846H60.7308V83.6923Z" fill="#222623"/>
<path d="M60.7308 89.8846H54.5385V96.0769H60.7308V89.8846Z" fill="#222623"/>
<path d="M60.7308 96.0769H54.5385V102.269H60.7308V96.0769Z" fill="#F5FF0B"/>
<path d="M60.7308 102.269H54.5385V108.462H60.7308V102.269Z" fill="#F5FF0B"/>
<path d="M60.7308 108.462H54.5385V114.654H60.7308V108.462Z" fill="#F5FF0B"/>
<path d="M60.7308 114.654H54.5385V120.846H60.7308V114.654Z" fill="#F5FF0B"/>
<path d="M60.7308 120.846H54.5385V127.038H60.7308V120.846Z" fill="#F5FF0B"/>
<path d="M66.9231 9.38462H60.7308V15.5769H66.9231V9.38462Z" fill="#F5FF0B"/>
<path d="M66.9231 15.5769H60.7308V21.7692H66.9231V15.5769Z" fill="#F5FF0B"/>
<path d="M66.9231 21.7692H60.7308V27.9615H66.9231V21.7692Z" fill="#222623"/>
<path d="M66.9231 27.9615H60.7308V34.1538H66.9231V27.9615Z" fill="#222623"/>
<path d="M66.9231 34.1538H60.7308V40.3462H66.9231V34.1538Z" fill="#222623"/>
<path d="M66.9231 40.3462H60.7308V46.5385H66.9231V40.3462Z" fill="#222623"/>
<path d="M66.9231 46.5385H60.7308V52.7308H66.9231V46.5385Z" fill="#222623"/>
<path d="M66.9231 52.7308H60.7308V58.9231H66.9231V52.7308Z" fill="#222623"/>
<path d="M66.9231 58.9231H60.7308V65.1154H66.9231V58.9231Z" fill="#222623"/>
<path d="M66.9231 65.1154H60.7308V71.3077H66.9231V65.1154Z" fill="#222623"/>
<path d="M66.9231 71.3077H60.7308V77.5H66.9231V71.3077Z" fill="#222623"/>
<path d="M66.9231 77.5H60.7308V83.6923H66.9231V77.5Z" fill="#222623"/>
<path d="M66.9231 83.6923H60.7308V89.8846H66.9231V83.6923Z" fill="#222623"/>
<path d="M66.9231 89.8846H60.7308V96.0769H66.9231V89.8846Z" fill="#222623"/>
<path d="M66.9231 96.0769H60.7308V102.269H66.9231V96.0769Z" fill="#222623"/>
<path d="M66.9231 102.269H60.7308V108.462H66.9231V102.269Z" fill="#F5FF0B"/>
<path d="M66.9231 108.462H60.7308V114.654H66.9231V108.462Z" fill="#F5FF0B"/>
<path d="M66.9231 114.654H60.7308V120.846H66.9231V114.654Z" fill="#F5FF0B"/>
<path d="M66.9231 120.846H60.7308V127.038H66.9231V120.846Z" fill="#F5FF0B"/>
<path d="M73.1154 9.38462H66.9231V15.5769H73.1154V9.38462Z" fill="#222623"/>
<path d="M73.1154 15.5769H66.9231V21.7692H73.1154V15.5769Z" fill="#222623"/>
<path d="M73.1154 21.7692H66.9231V27.9615H73.1154V21.7692Z" fill="#222623"/>
<path d="M73.1154 27.9615H66.9231V34.1538H73.1154V27.9615Z" fill="#222623"/>
<path d="M73.1154 34.1538H66.9231V40.3462H73.1154V34.1538Z" fill="#222623"/>
<path d="M73.1154 40.3462H66.9231V46.5385H73.1154V40.3462Z" fill="#222623"/>
<path d="M73.1154 46.5385H66.9231V52.7308H73.1154V46.5385Z" fill="#222623"/>
<path d="M73.1154 52.7308H66.9231V58.9231H73.1154V52.7308Z" fill="#222623"/>
<path d="M73.1154 58.9231H66.9231V65.1154H73.1154V58.9231Z" fill="#222623"/>
<path d="M73.1154 65.1154H66.9231V71.3077H73.1154V65.1154Z" fill="#222623"/>
<path d="M73.1154 71.3077H66.9231V77.5H73.1154V71.3077Z" fill="#222623"/>
<path d="M73.1154 77.5H66.9231V83.6923H73.1154V77.5Z" fill="#222623"/>
<path d="M73.1154 83.6923H66.9231V89.8846H73.1154V83.6923Z" fill="#222623"/>
<path d="M73.1154 89.8846H66.9231V96.0769H73.1154V89.8846Z" fill="#222623"/>
<path d="M73.1154 96.0769H66.9231V102.269H73.1154V96.0769Z" fill="#222623"/>
<path d="M73.1154 102.269H66.9231V108.462H73.1154V102.269Z" fill="#222623"/>
<path d="M73.1154 108.462H66.9231V114.654H73.1154V108.462Z" fill="#F5FF0B"/>
<path d="M73.1154 114.654H66.9231V120.846H73.1154V114.654Z" fill="#F5FF0B"/>
<path d="M73.1154 120.846H66.9231V127.038H73.1154V120.846Z" fill="#F5FF0B"/>
<path d="M79.3077 9.38462H73.1154V15.5769H79.3077V9.38462Z" fill="#222623"/>
<path d="M79.3077 15.5769H73.1154V21.7692H79.3077V15.5769Z" fill="#222623"/>
<path d="M79.3077 21.7692H73.1154V27.9615H79.3077V21.7692Z" fill="#222623"/>
<path d="M79.3077 27.9615H73.1154V34.1538H79.3077V27.9615Z" fill="#222623"/>
<path d="M79.3077 34.1538H73.1154V40.3462H79.3077V34.1538Z" fill="#222623"/>
<path d="M79.3077 40.3462H73.1154V46.5385H79.3077V40.3462Z" fill="#222623"/>
<path d="M79.3077 46.5385H73.1154V52.7308H79.3077V46.5385Z" fill="#222623"/>
<path d="M79.3077 52.7308H73.1154V58.9231H79.3077V52.7308Z" fill="#222623"/>
<path d="M79.3077 58.9231H73.1154V65.1154H79.3077V58.9231Z" fill="#222623"/>
<path d="M79.3077 65.1154H73.1154V71.3077H79.3077V65.1154Z" fill="#222623"/>
<path d="M79.3077 71.3077H73.1154V77.5H79.3077V71.3077Z" fill="#222623"/>
<path d="M79.3077 77.5H73.1154V83.6923H79.3077V77.5Z" fill="#222623"/>
<path d="M79.3077 83.6923H73.1154V89.8846H79.3077V83.6923Z" fill="#222623"/>
<path d="M79.3077 89.8846H73.1154V96.0769H79.3077V89.8846Z" fill="#222623"/>
<path d="M79.3077 96.0769H73.1154V102.269H79.3077V96.0769Z" fill="#222623"/>
<path d="M79.3077 102.269H73.1154V108.462H79.3077V102.269Z" fill="#222623"/>
<path d="M79.3077 108.462H73.1154V114.654H79.3077V108.462Z" fill="#222623"/>
<path d="M79.3077 114.654H73.1154V120.846H79.3077V114.654Z" fill="#F5FF0B"/>
<path d="M79.3077 120.846H73.1154V127.038H79.3077V120.846Z" fill="#F5FF0B"/>
<path d="M85.5 9.38462H79.3077V15.5769H85.5V9.38462Z" fill="#F5FF0B"/>
<path d="M85.5 15.5769H79.3077V21.7692H85.5V15.5769Z" fill="#F5FF0B"/>
<path d="M85.5 21.7692H79.3077V27.9615H85.5V21.7692Z" fill="#F5FF0B"/>
<path d="M85.5 27.9615H79.3077V34.1538H85.5V27.9615Z" fill="#222623"/>
<path d="M85.5 34.1538H79.3077V40.3462H85.5V34.1538Z" fill="#222623"/>
<path d="M85.5 40.3462H79.3077V46.5385H85.5V40.3462Z" fill="#222623"/>
<path d="M85.5 46.5385H79.3077V52.7308H85.5V46.5385Z" fill="#222623"/>
<path d="M85.5 52.7308H79.3077V58.9231H85.5V52.7308Z" fill="#222623"/>
<path d="M85.5 58.9231H79.3077V65.1154H85.5V58.9231Z" fill="#222623"/>
<path d="M85.5 65.1154H79.3077V71.3077H85.5V65.1154Z" fill="#222623"/>
<path d="M85.5 71.3077H79.3077V77.5H85.5V71.3077Z" fill="#222623"/>
<path d="M85.5 77.5H79.3077V83.6923H85.5V77.5Z" fill="#222623"/>
<path d="M85.5 83.6923H79.3077V89.8846H85.5V83.6923Z" fill="#222623"/>
<path d="M85.5 89.8846H79.3077V96.0769H85.5V89.8846Z" fill="#222623"/>
<path d="M85.5 96.0769H79.3077V102.269H85.5V96.0769Z" fill="#222623"/>
<path d="M85.5 102.269H79.3077V108.462H85.5V102.269Z" fill="#222623"/>
<path d="M85.5 108.462H79.3077V114.654H85.5V108.462Z" fill="#222623"/>
<path d="M85.5 114.654H79.3077V120.846H85.5V114.654Z" fill="#222623"/>
<path d="M85.5 120.846H79.3077V127.038H85.5V120.846Z" fill="#F5FF0B"/>
<path d="M91.6923 9.38462H85.5V15.5769H91.6923V9.38462Z" fill="#F5FF0B"/>
<path d="M91.6923 15.5769H85.5V21.7692H91.6923V15.5769Z" fill="#222623"/>
<path d="M91.6923 21.7692H85.5V27.9615H91.6923V21.7692Z" fill="#222623"/>
<path d="M91.6923 27.9615H85.5V34.1538H91.6923V27.9615Z" fill="#222623"/>
<path d="M91.6923 34.1538H85.5V40.3462H91.6923V34.1538Z" fill="#222623"/>
<path d="M91.6923 40.3462H85.5V46.5385H91.6923V40.3462Z" fill="#222623"/>
<path d="M91.6923 46.5385H85.5V52.7308H91.6923V46.5385Z" fill="#222623"/>
<path d="M91.6923 52.7308H85.5V58.9231H91.6923V52.7308Z" fill="#222623"/>
<path d="M91.6923 58.9231H85.5V65.1154H91.6923V58.9231Z" fill="#222623"/>
<path d="M91.6923 65.1154H85.5V71.3077H91.6923V65.1154Z" fill="#222623"/>
<path d="M91.6923 71.3077H85.5V77.5H91.6923V71.3077Z" fill="#222623"/>
<path d="M91.6923 77.5H85.5V83.6923H91.6923V77.5Z" fill="#222623"/>
<path d="M91.6923 83.6923H85.5V89.8846H91.6923V83.6923Z" fill="#222623"/>
<path d="M91.6923 89.8846H85.5V96.0769H91.6923V89.8846Z" fill="#222623"/>
<path d="M91.6923 96.0769H85.5V102.269H91.6923V96.0769Z" fill="#222623"/>
<path d="M91.6923 102.269H85.5V108.462H91.6923V102.269Z" fill="#222623"/>
<path d="M91.6923 108.462H85.5V114.654H91.6923V108.462Z" fill="#222623"/>
<path d="M91.6923 114.654H85.5V120.846H91.6923V114.654Z" fill="#222623"/>
<path d="M91.6923 120.846H85.5V127.038H91.6923V120.846Z" fill="#222623"/>
<path d="M97.8846 9.38462H91.6923V15.5769H97.8846V9.38462Z" fill="#222623"/>
<path d="M97.8846 15.5769H91.6923V21.7692H97.8846V15.5769Z" fill="#F5FF0B"/>
<path d="M97.8846 21.7692H91.6923V27.9615H97.8846V21.7692Z" fill="#F5FF0B"/>
<path d="M97.8846 27.9615H91.6923V34.1538H97.8846V27.9615Z" fill="#222623"/>
<path d="M97.8846 34.1538H91.6923V40.3462H97.8846V34.1538Z" fill="#222623"/>
<path d="M97.8846 40.3462H91.6923V46.5385H97.8846V40.3462Z" fill="#222623"/>
<path d="M97.8846 46.5385H91.6923V52.7308H97.8846V46.5385Z" fill="#222623"/>
<path d="M97.8846 52.7308H91.6923V58.9231H97.8846V52.7308Z" fill="#222623"/>
<path d="M97.8846 58.9231H91.6923V65.1154H97.8846V58.9231Z" fill="#222623"/>
<path d="M97.8846 65.1154H91.6923V71.3077H97.8846V65.1154Z" fill="#222623"/>
<path d="M97.8846 71.3077H91.6923V77.5H97.8846V71.3077Z" fill="#222623"/>
<path d="M97.8846 77.5H91.6923V83.6923H97.8846V77.5Z" fill="#222623"/>
<path d="M97.8846 83.6923H91.6923V89.8846H97.8846V83.6923Z" fill="#222623"/>
<path d="M97.8846 89.8846H91.6923V96.0769H97.8846V89.8846Z" fill="#222623"/>
<path d="M97.8846 96.0769H91.6923V102.269H97.8846V96.0769Z" fill="#222623"/>
<path d="M97.8846 102.269H91.6923V108.462H97.8846V102.269Z" fill="#222623"/>
<path d="M97.8846 108.462H91.6923V114.654H97.8846V108.462Z" fill="#222623"/>
<path d="M97.8846 114.654H91.6923V120.846H97.8846V114.654Z" fill="#222623"/>
<path d="M97.8846 120.846H91.6923V127.038H97.8846V120.846Z" fill="#222623"/>
<path d="M104.077 9.38462H97.8846V15.5769H104.077V9.38462Z" fill="#222623"/>
<path d="M104.077 15.5769H97.8846V21.7692H104.077V15.5769Z" fill="#222623"/>
<path d="M104.077 21.7692H97.8846V27.9615H104.077V21.7692Z" fill="#222623"/>
<path d="M104.077 27.9615H97.8846V34.1538H104.077V27.9615Z" fill="#222623"/>
<path d="M104.077 34.1538H97.8846V40.3462H104.077V34.1538Z" fill="#222623"/>
<path d="M104.077 40.3462H97.8846V46.5385H104.077V40.3462Z" fill="#222623"/>
<path d="M104.077 46.5385H97.8846V52.7308H104.077V46.5385Z" fill="#222623"/>
<path d="M104.077 52.7308H97.8846V58.9231H104.077V52.7308Z" fill="#222623"/>
<path d="M104.077 58.9231H97.8846V65.1154H104.077V58.9231Z" fill="#222623"/>
<path d="M104.077 65.1154H97.8846V71.3077H104.077V65.1154Z" fill="#222623"/>
<path d="M104.077 71.3077H97.8846V77.5H104.077V71.3077Z" fill="#222623"/>
<path d="M104.077 77.5H97.8846V83.6923H104.077V77.5Z" fill="#222623"/>
<path d="M104.077 83.6923H97.8846V89.8846H104.077V83.6923Z" fill="#222623"/>
<path d="M104.077 89.8846H97.8846V96.0769H104.077V89.8846Z" fill="#222623"/>
<path d="M104.077 96.0769H97.8846V102.269H104.077V96.0769Z" fill="#222623"/>
<path d="M104.077 102.269H97.8846V108.462H104.077V102.269Z" fill="#222623"/>
<path d="M104.077 108.462H97.8846V114.654H104.077V108.462Z" fill="#222623"/>
<path d="M104.077 114.654H97.8846V120.846H104.077V114.654Z" fill="#222623"/>
<path d="M104.077 120.846H97.8846V127.038H104.077V120.846Z" fill="#222623"/>
<path d="M110.269 9.38462H104.077V15.5769H110.269V9.38462Z" fill="#222623"/>
<path d="M110.269 15.5769H104.077V21.7692H110.269V15.5769Z" fill="#222623"/>
<path d="M110.269 21.7692H104.077V27.9615H110.269V21.7692Z" fill="#222623"/>
<path d="M110.269 27.9615H104.077V34.1538H110.269V27.9615Z" fill="#222623"/>
<path d="M110.269 34.1538H104.077V40.3462H110.269V34.1538Z" fill="#222623"/>
<path d="M110.269 40.3462H104.077V46.5385H110.269V40.3462Z" fill="#222623"/>
<path d="M110.269 46.5385H104.077V52.7308H110.269V46.5385Z" fill="#222623"/>
<path d="M110.269 52.7308H104.077V58.9231H110.269V52.7308Z" fill="#222623"/>
<path d="M110.269 58.9231H104.077V65.1154H110.269V58.9231Z" fill="#222623"/>
<path d="M110.269 65.1154H104.077V71.3077H110.269V65.1154Z" fill="#222623"/>
<path d="M110.269 71.3077H104.077V77.5H110.269V71.3077Z" fill="#222623"/>
<path d="M110.269 77.5H104.077V83.6923H110.269V77.5Z" fill="#222623"/>
<path d="M110.269 83.6923H104.077V89.8846H110.269V83.6923Z" fill="#222623"/>
<path d="M110.269 89.8846H104.077V96.0769H110.269V89.8846Z" fill="#222623"/>
<path d="M110.269 96.0769H104.077V102.269H110.269V96.0769Z" fill="#222623"/>
<path d="M110.269 102.269H104.077V108.462H110.269V102.269Z" fill="#222623"/>
<path d="M110.269 108.462H104.077V114.654H110.269V108.462Z" fill="#222623"/>
<path d="M110.269 114.654H104.077V120.846H110.269V114.654Z" fill="#F5FF0B"/>
<path d="M110.269 120.846H104.077V127.038H110.269V120.846Z" fill="#222623"/>
<path d="M116.462 9.38462H110.269V15.5769H116.462V9.38462Z" fill="#F5FF0B"/>
<path d="M116.462 15.5769H110.269V21.7692H116.462V15.5769Z" fill="#F5FF0B"/>
<path d="M116.462 21.7692H110.269V27.9615H116.462V21.7692Z" fill="#F5FF0B"/>
<path d="M116.462 27.9615H110.269V34.1538H116.462V27.9615Z" fill="#222623"/>
<path d="M116.462 34.1538H110.269V40.3462H116.462V34.1538Z" fill="#222623"/>
<path d="M116.462 40.3462H110.269V46.5385H116.462V40.3462Z" fill="#222623"/>
<path d="M116.462 46.5385H110.269V52.7308H116.462V46.5385Z" fill="#222623"/>
<path d="M116.462 52.7308H110.269V58.9231H116.462V52.7308Z" fill="#222623"/>
<path d="M116.462 58.9231H110.269V65.1154H116.462V58.9231Z" fill="#222623"/>
<path d="M116.462 65.1154H110.269V71.3077H116.462V65.1154Z" fill="#222623"/>
<path d="M116.462 71.3077H110.269V77.5H116.462V71.3077Z" fill="#222623"/>
<path d="M116.462 77.5H110.269V83.6923H116.462V77.5Z" fill="#222623"/>
<path d="M116.462 83.6923H110.269V89.8846H116.462V83.6923Z" fill="#222623"/>
<path d="M116.462 89.8846H110.269V96.0769H116.462V89.8846Z" fill="#222623"/>
<path d="M116.462 96.0769H110.269V102.269H116.462V96.0769Z" fill="#222623"/>
<path d="M116.462 102.269H110.269V108.462H116.462V102.269Z" fill="#222623"/>
<path d="M116.462 108.462H110.269V114.654H116.462V108.462Z" fill="#222623"/>
<path d="M116.462 114.654H110.269V120.846H116.462V114.654Z" fill="#222623"/>
<path d="M116.462 120.846H110.269V127.038H116.462V120.846Z" fill="#222623"/>
<path d="M122.654 9.38462H116.462V15.5769H122.654V9.38462Z" fill="#F5FF0B"/>
<path d="M122.654 15.5769H116.462V21.7692H122.654V15.5769Z" fill="#222623"/>
<path d="M122.654 21.7692H116.462V27.9615H122.654V21.7692Z" fill="#F5FF0B"/>
<path d="M122.654 27.9615H116.462V34.1538H122.654V27.9615Z" fill="#222623"/>
<path d="M122.654 34.1538H116.462V40.3462H122.654V34.1538Z" fill="#222623"/>
<path d="M122.654 40.3462H116.462V46.5385H122.654V40.3462Z" fill="#222623"/>
<path d="M122.654 46.5385H116.462V52.7308H122.654V46.5385Z" fill="#222623"/>
<path d="M122.654 52.7308H116.462V58.9231H122.654V52.7308Z" fill="#222623"/>
<path d="M122.654 58.9231H116.462V65.1154H122.654V58.9231Z" fill="#222623"/>
<path d="M122.654 65.1154H116.462V71.3077H122.654V65.1154Z" fill="#222623"/>
<path d="M122.654 71.3077H116.462V77.5H122.654V71.3077Z" fill="#222623"/>
<path d="M122.654 77.5H116.462V83.6923H122.654V77.5Z" fill="#222623"/>
<path d="M122.654 83.6923H116.462V89.8846H122.654V83.6923Z" fill="#222623"/>
<path d="M122.654 89.8846H116.462V96.0769H122.654V89.8846Z" fill="#222623"/>
<path d="M122.654 96.0769H116.462V102.269H122.654V96.0769Z" fill="#222623"/>
<path d="M122.654 102.269H116.462V108.462H122.654V102.269Z" fill="#222623"/>
<path d="M122.654 108.462H116.462V114.654H122.654V108.462Z" fill="#222623"/>
<path d="M122.654 114.654H116.462V120.846H122.654V114.654Z" fill="#222623"/>
<path d="M122.654 120.846H116.462V127.038H122.654V120.846Z" fill="#222623"/>
<path d="M29.7692 3.19231H23.5769V9.38462H29.7692V3.19231Z" fill="#F5FF0B"/>
<path d="M35.9615 3.19231H29.7692V9.38462H35.9615V3.19231Z" fill="#222623"/>
<path d="M42.1538 3.19231H35.9615V9.38462H42.1538V3.19231Z" fill="#222623"/>
<path d="M48.3462 3.19231H42.1538V9.38462H48.3462V3.19231Z" fill="#222623"/>
<path d="M54.5385 3.19231H48.3462V9.38462H54.5385V3.19231Z" fill="#222623"/>
<path d="M60.7308 3.19231H54.5385V9.38462H60.7308V3.19231Z" fill="#222623"/>
<path d="M66.9231 3.19231H60.7308V9.38462H66.9231V3.19231Z" fill="#222623"/>
<path d="M73.1154 3.19231H66.9231V9.38462H73.1154V3.19231Z" fill="#222623"/>
<path d="M79.3077 3.19231H73.1154V9.38462H79.3077V3.19231Z" fill="#222623"/>
<path d="M85.5 3.19231H79.3077V9.38462H85.5V3.19231Z" fill="#222623"/>
<path d="M91.6923 3.19231H85.5V9.38462H91.6923V3.19231Z" fill="#222623"/>
<path d="M97.8846 3.19231H91.6923V9.38462H97.8846V3.19231Z" fill="#222623"/>
<path d="M104.077 3.19231H97.8846V9.38462H104.077V3.19231Z" fill="#222623"/>
<path d="M110.269 3.19231H104.077V9.38462H110.269V3.19231Z" fill="#222623"/>
<path d="M116.462 3.19231H110.269V9.38462H116.462V3.19231Z" fill="#F5FF0B"/>
<path d="M122.654 3.19231H116.462V9.38462H122.654V3.19231Z" fill="#222623"/>
<path d="M128.846 9.38462H122.654V15.5769H128.846V9.38462Z" fill="#F5FF0B"/>
<path d="M128.846 15.5769H122.654V21.7692H128.846V15.5769Z" fill="#F5FF0B"/>
<path d="M128.846 21.7692H122.654V27.9615H128.846V21.7692Z" fill="#222623"/>
<path d="M128.846 27.9615H122.654V34.1538H128.846V27.9615Z" fill="#222623"/>
<path d="M128.846 34.1538H122.654V40.3462H128.846V34.1538Z" fill="#222623"/>
<path d="M128.846 40.3462H122.654V46.5385H128.846V40.3462Z" fill="#222623"/>
<path d="M128.846 46.5385H122.654V52.7308H128.846V46.5385Z" fill="#222623"/>
<path d="M128.846 52.7308H122.654V58.9231H128.846V52.7308Z" fill="#222623"/>
<path d="M128.846 58.9231H122.654V65.1154H128.846V58.9231Z" fill="#222623"/>
<path d="M128.846 65.1154H122.654V71.3077H128.846V65.1154Z" fill="#222623"/>
<path d="M128.846 71.3077H122.654V77.5H128.846V71.3077Z" fill="#222623"/>
<path d="M128.846 77.5H122.654V83.6923H128.846V77.5Z" fill="#222623"/>
<path d="M128.846 83.6923H122.654V89.8846H128.846V83.6923Z" fill="#222623"/>
<path d="M128.846 89.8846H122.654V96.0769H128.846V89.8846Z" fill="#222623"/>
<path d="M128.846 96.0769H122.654V102.269H128.846V96.0769Z" fill="#222623"/>
<path d="M128.846 102.269H122.654V108.462H128.846V102.269Z" fill="#222623"/>
<path d="M128.846 108.462H122.654V114.654H128.846V108.462Z" fill="#222623"/>
<path d="M128.846 114.654H122.654V120.846H128.846V114.654Z" fill="#222623"/>
<path d="M128.846 120.846H122.654V127.038H128.846V120.846Z" fill="#F5FF0B"/>
<path d="M11.1923 127.038H5V133.231H11.1923V127.038Z" fill="#F5FF0B"/>
<path d="M17.3846 127.038H11.1923V133.231H17.3846V127.038Z" fill="#F5FF0B"/>
<path d="M23.5769 127.038H17.3846V133.231H23.5769V127.038Z" fill="#F5FF0B"/>
<path d="M29.7692 127.038H23.5769V133.231H29.7692V127.038Z" fill="#F5FF0B"/>
<path d="M35.9615 127.038H29.7692V133.231H35.9615V127.038Z" fill="#F5FF0B"/>
<path d="M42.1538 127.038H35.9615V133.231H42.1538V127.038Z" fill="#222623"/>
<path d="M48.3462 127.038H42.1538V133.231H48.3462V127.038Z" fill="#222623"/>
<path d="M54.5385 127.038H48.3462V133.231H54.5385V127.038Z" fill="#222623"/>
<path d="M60.7308 127.038H54.5385V133.231H60.7308V127.038Z" fill="#222623"/>
<path d="M66.9231 127.038H60.7308V133.231H66.9231V127.038Z" fill="#222623"/>
<path d="M73.1154 127.038H66.9231V133.231H73.1154V127.038Z" fill="#F5FF0B"/>
<path d="M79.3077 127.038H73.1154V133.231H79.3077V127.038Z" fill="#F5FF0B"/>
<path d="M85.5 127.038H79.3077V133.231H85.5V127.038Z" fill="#F5FF0B"/>
<path d="M91.6923 127.038H85.5V133.231H91.6923V127.038Z" fill="#222623"/>
<path d="M97.8846 127.038H91.6923V133.231H97.8846V127.038Z" fill="#222623"/>
<path d="M104.077 127.038H97.8846V133.231H104.077V127.038Z" fill="#222623"/>
<path d="M110.269 127.038H104.077V133.231H110.269V127.038Z" fill="#F5FF0B"/>
<path d="M116.462 127.038H110.269V133.231H116.462V127.038Z" fill="#F5FF0B"/>
<path d="M122.654 127.038H116.462V133.231H122.654V127.038Z" fill="#222623"/>
<path d="M128.846 127.038H122.654V133.231H128.846V127.038Z" fill="#222623"/>
<path d="M128.846 3.19231H122.654V9.38462H128.846V3.19231Z" fill="#222623"/>
<path d="M135.038 9.38462H128.846V15.5769H135.038V9.38462Z" fill="#222623"/>
<path d="M135.038 15.5769H128.846V21.7692H135.038V15.5769Z" fill="#222623"/>
<path d="M135.038 21.7692H128.846V27.9615H135.038V21.7692Z" fill="#222623"/>
<path d="M135.038 27.9615H128.846V34.1538H135.038V27.9615Z" fill="#222623"/>
<path d="M135.038 34.1538H128.846V40.3462H135.038V34.1538Z" fill="#222623"/>
<path d="M135.038 40.3462H128.846V46.5385H135.038V40.3462Z" fill="#222623"/>
<path d="M135.038 46.5385H128.846V52.7308H135.038V46.5385Z" fill="#222623"/>
<path d="M135.038 52.7308H128.846V58.9231H135.038V52.7308Z" fill="#222623"/>
<path d="M135.038 58.9231H128.846V65.1154H135.038V58.9231Z" fill="#222623"/>
<path d="M135.038 65.1154H128.846V71.3077H135.038V65.1154Z" fill="#222623"/>
<path d="M135.038 71.3077H128.846V77.5H135.038V71.3077Z" fill="#222623"/>
<path d="M135.038 77.5H128.846V83.6923H135.038V77.5Z" fill="#222623"/>
<path d="M135.038 83.6923H128.846V89.8846H135.038V83.6923Z" fill="#222623"/>
<path d="M135.038 89.8846H128.846V96.0769H135.038V89.8846Z" fill="#222623"/>
<path d="M135.038 96.0769H128.846V102.269H135.038V96.0769Z" fill="#222623"/>
<path d="M135.038 102.269H128.846V108.462H135.038V102.269Z" fill="#222623"/>
<path d="M135.038 108.462H128.846V114.654H135.038V108.462Z" fill="#222623"/>
<path d="M135.038 114.654H128.846V120.846H135.038V114.654Z" fill="#222623"/>
<path d="M135.038 120.846H128.846V127.038H135.038V120.846Z" fill="#222623"/>
<path d="M135.038 127.038H128.846V133.231H135.038V127.038Z" fill="#222623"/>
<path d="M135.038 3.19231H128.846V9.38462H135.038V3.19231Z" fill="#222623"/>
<path d="M141.231 9.38462H135.038V15.5769H141.231V9.38462Z" fill="#222623"/>
<path d="M141.231 15.5769H135.038V21.7692H141.231V15.5769Z" fill="#222623"/>
<path d="M141.231 21.7692H135.038V27.9615H141.231V21.7692Z" fill="#222623"/>
<path d="M141.231 27.9615H135.038V34.1538H141.231V27.9615Z" fill="#222623"/>
<path d="M141.231 34.1538H135.038V40.3462H141.231V34.1538Z" fill="#222623"/>
<path d="M141.231 40.3462H135.038V46.5385H141.231V40.3462Z" fill="#222623"/>
<path d="M141.231 46.5385H135.038V52.7308H141.231V46.5385Z" fill="#222623"/>
<path d="M141.231 52.7308H135.038V58.9231H141.231V52.7308Z" fill="#222623"/>
<path d="M141.231 58.9231H135.038V65.1154H141.231V58.9231Z" fill="#222623"/>
<path d="M141.231 65.1154H135.038V71.3077H141.231V65.1154Z" fill="#222623"/>
<path d="M141.231 71.3077H135.038V77.5H141.231V71.3077Z" fill="#222623"/>
<path d="M141.231 77.5H135.038V83.6923H141.231V77.5Z" fill="#222623"/>
<path d="M141.231 83.6923H135.038V89.8846H141.231V83.6923Z" fill="#222623"/>
<path d="M141.231 89.8846H135.038V96.0769H141.231V89.8846Z" fill="#222623"/>
<path d="M141.231 96.0769H135.038V102.269H141.231V96.0769Z" fill="#222623"/>
<path d="M141.231 102.269H135.038V108.462H141.231V102.269Z" fill="#222623"/>
<path d="M141.231 108.462H135.038V114.654H141.231V108.462Z" fill="#222623"/>
<path d="M141.231 114.654H135.038V120.846H141.231V114.654Z" fill="#222623"/>
<path d="M141.231 120.846H135.038V127.038H141.231V120.846Z" fill="#222623"/>
<path d="M147.423 9.38462H141.231V15.5769H147.423V9.38462Z" fill="#F5FF0B"/>
<path d="M147.423 15.5769H141.231V21.7692H147.423V15.5769Z" fill="#F5FF0B"/>
<path d="M147.423 21.7692H141.231V27.9615H147.423V21.7692Z" fill="#222623"/>
<path d="M147.423 27.9615H141.231V34.1538H147.423V27.9615Z" fill="#222623"/>
<path d="M147.423 34.1538H141.231V40.3462H147.423V34.1538Z" fill="#222623"/>
<path d="M147.423 40.3462H141.231V46.5385H147.423V40.3462Z" fill="#222623"/>
<path d="M147.423 46.5385H141.231V52.7308H147.423V46.5385Z" fill="#222623"/>
<path d="M147.423 52.7308H141.231V58.9231H147.423V52.7308Z" fill="#222623"/>
<path d="M147.423 58.9231H141.231V65.1154H147.423V58.9231Z" fill="#222623"/>
<path d="M147.423 65.1154H141.231V71.3077H147.423V65.1154Z" fill="#222623"/>
<path d="M147.423 71.3077H141.231V77.5H147.423V71.3077Z" fill="#222623"/>
<path d="M147.423 77.5H141.231V83.6923H147.423V77.5Z" fill="#222623"/>
<path d="M147.423 83.6923H141.231V89.8846H147.423V83.6923Z" fill="#222623"/>
<path d="M147.423 89.8846H141.231V96.0769H147.423V89.8846Z" fill="#222623"/>
<path d="M147.423 96.0769H141.231V102.269H147.423V96.0769Z" fill="#222623"/>
<path d="M147.423 102.269H141.231V108.462H147.423V102.269Z" fill="#222623"/>
<path d="M147.423 108.462H141.231V114.654H147.423V108.462Z" fill="#222623"/>
<path d="M147.423 114.654H141.231V120.846H147.423V114.654Z" fill="#222623"/>
<path d="M147.423 120.846H141.231V127.038H147.423V120.846Z" fill="#222623"/>
<path d="M153.615 9.38462H147.423V15.5769H153.615V9.38462Z" fill="#F5FF0B"/>
<path d="M153.615 15.5769H147.423V21.7692H153.615V15.5769Z" fill="#222623"/>
<path d="M153.615 21.7692H147.423V27.9615H153.615V21.7692Z" fill="#F5FF0B"/>
<path d="M153.615 27.9615H147.423V34.1538H153.615V27.9615Z" fill="#222623"/>
<path d="M153.615 34.1538H147.423V40.3462H153.615V34.1538Z" fill="#222623"/>
<path d="M153.615 40.3462H147.423V46.5385H153.615V40.3462Z" fill="#222623"/>
<path d="M153.615 46.5385H147.423V52.7308H153.615V46.5385Z" fill="#222623"/>
<path d="M153.615 52.7308H147.423V58.9231H153.615V52.7308Z" fill="#222623"/>
<path d="M153.615 58.9231H147.423V65.1154H153.615V58.9231Z" fill="#222623"/>
<path d="M153.615 65.1154H147.423V71.3077H153.615V65.1154Z" fill="#222623"/>
<path d="M153.615 71.3077H147.423V77.5H153.615V71.3077Z" fill="#222623"/>
<path d="M153.615 77.5H147.423V83.6923H153.615V77.5Z" fill="#222623"/>
<path d="M153.615 83.6923H147.423V89.8846H153.615V83.6923Z" fill="#222623"/>
<path d="M153.615 89.8846H147.423V96.0769H153.615V89.8846Z" fill="#222623"/>
<path d="M153.615 96.0769H147.423V102.269H153.615V96.0769Z" fill="#222623"/>
<path d="M153.615 102.269H147.423V108.462H153.615V102.269Z" fill="#222623"/>
<path d="M153.615 108.462H147.423V114.654H153.615V108.462Z" fill="#222623"/>
<path d="M153.615 114.654H147.423V120.846H153.615V114.654Z" fill="#222623"/>
<path d="M153.615 120.846H147.423V127.038H153.615V120.846Z" fill="#222623"/>
<path d="M141.231 3.19231H135.038V9.38462H141.231V3.19231Z" fill="#222623"/>
<path d="M147.423 3.19231H141.231V9.38462H147.423V3.19231Z" fill="#222623"/>
<path d="M153.615 3.19231H147.423V9.38462H153.615V3.19231Z" fill="#222623"/>
<path d="M159.808 9.38462H153.615V15.5769H159.808V9.38462Z" fill="#222623"/>
<path d="M159.808 15.5769H153.615V21.7692H159.808V15.5769Z" fill="#F5FF0B"/>
<path d="M159.808 21.7692H153.615V27.9615H159.808V21.7692Z" fill="#F5FF0B"/>
<path d="M159.808 27.9615H153.615V34.1538H159.808V27.9615Z" fill="#222623"/>
<path d="M159.808 34.1538H153.615V40.3462H159.808V34.1538Z" fill="#222623"/>
<path d="M159.808 40.3462H153.615V46.5385H159.808V40.3462Z" fill="#222623"/>
<path d="M159.808 46.5385H153.615V52.7308H159.808V46.5385Z" fill="#222623"/>
<path d="M159.808 52.7308H153.615V58.9231H159.808V52.7308Z" fill="#222623"/>
<path d="M159.808 58.9231H153.615V65.1154H159.808V58.9231Z" fill="#222623"/>
<path d="M159.808 65.1154H153.615V71.3077H159.808V65.1154Z" fill="#222623"/>
<path d="M159.808 71.3077H153.615V77.5H159.808V71.3077Z" fill="#222623"/>
<path d="M159.808 77.5H153.615V83.6923H159.808V77.5Z" fill="#222623"/>
<path d="M159.808 83.6923H153.615V89.8846H159.808V83.6923Z" fill="#222623"/>
<path d="M159.808 89.8846H153.615V96.0769H159.808V89.8846Z" fill="#222623"/>
<path d="M159.808 96.0769H153.615V102.269H159.808V96.0769Z" fill="#222623"/>
<path d="M159.808 102.269H153.615V108.462H159.808V102.269Z" fill="#222623"/>
<path d="M159.808 108.462H153.615V114.654H159.808V108.462Z" fill="#222623"/>
<path d="M159.808 114.654H153.615V120.846H159.808V114.654Z" fill="#222623"/>
<path d="M159.808 120.846H153.615V127.038H159.808V120.846Z" fill="#222623"/>
<path d="M141.231 127.038H135.038V133.231H141.231V127.038Z" fill="#222623"/>
<path d="M147.423 127.038H141.231V133.231H147.423V127.038Z" fill="#222623"/>
<path d="M153.615 127.038H147.423V133.231H153.615V127.038Z" fill="#222623"/>
<path d="M159.808 127.038H153.615V133.231H159.808V127.038Z" fill="#F5FF0B"/>
<path d="M159.808 3.19231H153.615V9.38462H159.808V3.19231Z" fill="#222623"/>
<path d="M166 9.38462H159.808V15.5769H166V9.38462Z" fill="#222623"/>
<path d="M166 15.5769H159.808V21.7692H166V15.5769Z" fill="#222623"/>
<path d="M166 21.7692H159.808V27.9615H166V21.7692Z" fill="#222623"/>
<path d="M166 27.9615H159.808V34.1538H166V27.9615Z" fill="#222623"/>
<path d="M166 34.1538H159.808V40.3462H166V34.1538Z" fill="#222623"/>
<path d="M166 40.3462H159.808V46.5385H166V40.3462Z" fill="#222623"/>
<path d="M166 46.5385H159.808V52.7308H166V46.5385Z" fill="#222623"/>
<path d="M166 52.7308H159.808V58.9231H166V52.7308Z" fill="#222623"/>
<path d="M166 58.9231H159.808V65.1154H166V58.9231Z" fill="#222623"/>
<path d="M166 65.1154H159.808V71.3077H166V65.1154Z" fill="#222623"/>
<path d="M166 71.3077H159.808V77.5H166V71.3077Z" fill="#222623"/>
<path d="M166 77.5H159.808V83.6923H166V77.5Z" fill="#222623"/>
<path d="M166 83.6923H159.808V89.8846H166V83.6923Z" fill="#222623"/>
<path d="M166 89.8846H159.808V96.0769H166V89.8846Z" fill="#222623"/>
<path d="M166 96.0769H159.808V102.269H166V96.0769Z" fill="#222623"/>
<path d="M166 102.269H159.808V108.462H166V102.269Z" fill="#222623"/>
<path d="M166 108.462H159.808V114.654H166V108.462Z" fill="#222623"/>
<path d="M166 114.654H159.808V120.846H166V114.654Z" fill="#222623"/>
<path d="M166 120.846H159.808V127.038H166V120.846Z" fill="#222623"/>
<path d="M166 127.038H159.808V133.231H166V127.038Z" fill="#F5FF0B"/>
<path d="M11.1923 133.231H5V139.423H11.1923V133.231Z" fill="#F5FF0B"/>
<path d="M11.1923 139.423H5V145.615H11.1923V139.423Z" fill="#F5FF0B"/>
<path d="M11.1923 145.615H5V151.808H11.1923V145.615Z" fill="#222623"/>
<path d="M11.1923 151.808H5V158H11.1923V151.808Z" fill="#222623"/>
<path d="M17.3846 133.231H11.1923V139.423H17.3846V133.231Z" fill="#F5FF0B"/>
<path d="M17.3846 139.423H11.1923V145.615H17.3846V139.423Z" fill="#F5FF0B"/>
<path d="M17.3846 145.615H11.1923V151.808H17.3846V145.615Z" fill="#222623"/>
<path d="M17.3846 151.808H11.1923V158H17.3846V151.808Z" fill="#222623"/>
<path d="M23.5769 133.231H17.3846V139.423H23.5769V133.231Z" fill="#F5FF0B"/>
<path d="M23.5769 139.423H17.3846V145.615H23.5769V139.423Z" fill="#F5FF0B"/>
<path d="M23.5769 145.615H17.3846V151.808H23.5769V145.615Z" fill="#F5FF0B"/>
<path d="M23.5769 151.808H17.3846V158H23.5769V151.808Z" fill="#222623"/>
<path d="M29.7692 133.231H23.5769V139.423H29.7692V133.231Z" fill="#F5FF0B"/>
<path d="M29.7692 139.423H23.5769V145.615H29.7692V139.423Z" fill="#F5FF0B"/>
<path d="M29.7692 145.615H23.5769V151.808H29.7692V145.615Z" fill="#F5FF0B"/>
<path d="M29.7692 151.808H23.5769V158H29.7692V151.808Z" fill="#222623"/>
<path d="M35.9615 133.231H29.7692V139.423H35.9615V133.231Z" fill="#F5FF0B"/>
<path d="M35.9615 139.423H29.7692V145.615H35.9615V139.423Z" fill="#F5FF0B"/>
<path d="M35.9615 145.615H29.7692V151.808H35.9615V145.615Z" fill="#F5FF0B"/>
<path d="M35.9615 151.808H29.7692V158H35.9615V151.808Z" fill="#222623"/>
<path d="M42.1538 133.231H35.9615V139.423H42.1538V133.231Z" fill="#F5FF0B"/>
<path d="M42.1538 139.423H35.9615V145.615H42.1538V139.423Z" fill="#F5FF0B"/>
<path d="M42.1538 145.615H35.9615V151.808H42.1538V145.615Z" fill="#F5FF0B"/>
<path d="M42.1538 151.808H35.9615V158H42.1538V151.808Z" fill="#222623"/>
<path d="M48.3462 133.231H42.1538V139.423H48.3462V133.231Z" fill="#F5FF0B"/>
<path d="M48.3462 139.423H42.1538V145.615H48.3462V139.423Z" fill="#F5FF0B"/>
<path d="M48.3462 145.615H42.1538V151.808H48.3462V145.615Z" fill="#F5FF0B"/>
<path d="M48.3462 151.808H42.1538V158H48.3462V151.808Z" fill="#F5FF0B"/>
<path d="M54.5385 133.231H48.3462V139.423H54.5385V133.231Z" fill="#222623"/>
<path d="M54.5385 139.423H48.3462V145.615H54.5385V139.423Z" fill="#F5FF0B"/>
<path d="M54.5385 145.615H48.3462V151.808H54.5385V145.615Z" fill="#F5FF0B"/>
<path d="M54.5385 151.808H48.3462V158H54.5385V151.808Z" fill="#F5FF0B"/>
<path d="M60.7308 133.231H54.5385V139.423H60.7308V133.231Z" fill="#222623"/>
<path d="M60.7308 139.423H54.5385V145.615H60.7308V139.423Z" fill="#F5FF0B"/>
<path d="M60.7308 145.615H54.5385V151.808H60.7308V145.615Z" fill="#F5FF0B"/>
<path d="M60.7308 151.808H54.5385V158H60.7308V151.808Z" fill="#F5FF0B"/>
<path d="M66.9231 133.231H60.7308V139.423H66.9231V133.231Z" fill="#222623"/>
<path d="M66.9231 139.423H60.7308V145.615H66.9231V139.423Z" fill="#222623"/>
<path d="M66.9231 145.615H60.7308V151.808H66.9231V145.615Z" fill="#F5FF0B"/>
<path d="M66.9231 151.808H60.7308V158H66.9231V151.808Z" fill="#F5FF0B"/>
<path d="M73.1154 133.231H66.9231V139.423H73.1154V133.231Z" fill="#222623"/>
<path d="M73.1154 139.423H66.9231V145.615H73.1154V139.423Z" fill="#222623"/>
<path d="M73.1154 145.615H66.9231V151.808H73.1154V145.615Z" fill="#F5FF0B"/>
<path d="M73.1154 151.808H66.9231V158H73.1154V151.808Z" fill="#F5FF0B"/>
<path d="M79.3077 133.231H73.1154V139.423H79.3077V133.231Z" fill="#222623"/>
<path d="M79.3077 139.423H73.1154V145.615H79.3077V139.423Z" fill="#222623"/>
<path d="M79.3077 145.615H73.1154V151.808H79.3077V145.615Z" fill="#F5FF0B"/>
<path d="M79.3077 151.808H73.1154V158H79.3077V151.808Z" fill="#222623"/>
<path d="M85.5 133.231H79.3077V139.423H85.5V133.231Z" fill="#F5FF0B"/>
<path d="M85.5 139.423H79.3077V145.615H85.5V139.423Z" fill="#222623"/>
<path d="M85.5 145.615H79.3077V151.808H85.5V145.615Z" fill="#222623"/>
<path d="M85.5 151.808H79.3077V158H85.5V151.808Z" fill="#222623"/>
<path d="M91.6923 133.231H85.5V139.423H91.6923V133.231Z" fill="#F5FF0B"/>
<path d="M91.6923 139.423H85.5V145.615H91.6923V139.423Z" fill="#222623"/>
<path d="M91.6923 145.615H85.5V151.808H91.6923V145.615Z" fill="#222623"/>
<path d="M91.6923 151.808H85.5V158H91.6923V151.808Z" fill="#F5FF0B"/>
<path d="M97.8846 133.231H91.6923V139.423H97.8846V133.231Z" fill="#222623"/>
<path d="M97.8846 139.423H91.6923V145.615H97.8846V139.423Z" fill="#222623"/>
<path d="M97.8846 145.615H91.6923V151.808H97.8846V145.615Z" fill="#F5FF0B"/>
<path d="M97.8846 151.808H91.6923V158H97.8846V151.808Z" fill="#F5FF0B"/>
<path d="M104.077 133.231H97.8846V139.423H104.077V133.231Z" fill="#F5FF0B"/>
<path d="M104.077 139.423H97.8846V145.615H104.077V139.423Z" fill="#F5FF0B"/>
<path d="M104.077 145.615H97.8846V151.808H104.077V145.615Z" fill="#F5FF0B"/>
<path d="M104.077 151.808H97.8846V158H104.077V151.808Z" fill="#222623"/>
<path d="M110.269 133.231H104.077V139.423H110.269V133.231Z" fill="#F5FF0B"/>
<path d="M110.269 139.423H104.077V145.615H110.269V139.423Z" fill="#F5FF0B"/>
<path d="M110.269 145.615H104.077V151.808H110.269V145.615Z" fill="#222623"/>
<path d="M110.269 151.808H104.077V158H110.269V151.808Z" fill="#222623"/>
<path d="M116.462 133.231H110.269V139.423H116.462V133.231Z" fill="#222623"/>
<path d="M116.462 139.423H110.269V145.615H116.462V139.423Z" fill="#222623"/>
<path d="M116.462 145.615H110.269V151.808H116.462V145.615Z" fill="#222623"/>
<path d="M116.462 151.808H110.269V158H116.462V151.808Z" fill="#222623"/>
<path d="M122.654 133.231H116.462V139.423H122.654V133.231Z" fill="#222623"/>
<path d="M122.654 139.423H116.462V145.615H122.654V139.423Z" fill="#222623"/>
<path d="M122.654 145.615H116.462V151.808H122.654V145.615Z" fill="#F5FF0B"/>
<path d="M122.654 151.808H116.462V158H122.654V151.808Z" fill="#222623"/>
<path d="M128.846 133.231H122.654V139.423H128.846V133.231Z" fill="#222623"/>
<path d="M128.846 139.423H122.654V145.615H128.846V139.423Z" fill="#222623"/>
<path d="M128.846 145.615H122.654V151.808H128.846V145.615Z" fill="#F5FF0B"/>
<path d="M128.846 151.808H122.654V158H128.846V151.808Z" fill="#222623"/>
<path d="M11.1923 -3H5V3.19231H11.1923V-3Z" fill="#222623"/>
<path d="M17.3846 -3H11.1923V3.19231H17.3846V-3Z" fill="#222623"/>
<path d="M23.5769 -3H17.3846V3.19231H23.5769V-3Z" fill="#222623"/>
<path d="M29.7692 -3H23.5769V3.19231H29.7692V-3Z" fill="#222623"/>
<path d="M35.9615 -3H29.7692V3.19231H35.9615V-3Z" fill="#222623"/>
<path d="M42.1538 -3H35.9615V3.19231H42.1538V-3Z" fill="#222623"/>
<path d="M48.3462 -3H42.1538V3.19231H48.3462V-3Z" fill="#222623"/>
<path d="M54.5385 -3H48.3462V3.19231H54.5385V-3Z" fill="#222623"/>
<path d="M60.7308 -3H54.5385V3.19231H60.7308V-3Z" fill="#222623"/>
<path d="M66.9231 -3H60.7308V3.19231H66.9231V-3Z" fill="#222623"/>
<path d="M73.1154 -3H66.9231V3.19231H73.1154V-3Z" fill="#222623"/>
<path d="M79.3077 -3H73.1154V3.19231H79.3077V-3Z" fill="#222623"/>
<path d="M85.5 -3H79.3077V3.19231H85.5V-3Z" fill="#222623"/>
<path d="M91.6923 -3H85.5V3.19231H91.6923V-3Z" fill="#222623"/>
<path d="M97.8846 -3H91.6923V3.19231H97.8846V-3Z" fill="#222623"/>
<path d="M104.077 -3H97.8846V3.19231H104.077V-3Z" fill="#222623"/>
<path d="M110.269 -3H104.077V3.19231H110.269V-3Z" fill="#222623"/>
<path d="M116.462 -3H110.269V3.19231H116.462V-3Z" fill="#222623"/>
<path d="M122.654 -3H116.462V3.19231H122.654V-3Z" fill="#222623"/>
<path d="M128.846 -3H122.654V3.19231H128.846V-3Z" fill="#222623"/>
<path d="M135.038 133.231H128.846V139.423H135.038V133.231Z" fill="#222623"/>
<path d="M135.038 139.423H128.846V145.615H135.038V139.423Z" fill="#F5FF0B"/>
<path d="M135.038 145.615H128.846V151.808H135.038V145.615Z" fill="#F5FF0B"/>
<path d="M135.038 151.808H128.846V158H135.038V151.808Z" fill="#222623"/>
<path d="M135.038 -3H128.846V3.19231H135.038V-3Z" fill="#222623"/>
<path d="M141.231 133.231H135.038V139.423H141.231V133.231Z" fill="#222623"/>
<path d="M141.231 139.423H135.038V145.615H141.231V139.423Z" fill="#F5FF0B"/>
<path d="M141.231 145.615H135.038V151.808H141.231V145.615Z" fill="#F5FF0B"/>
<path d="M141.231 151.808H135.038V158H141.231V151.808Z" fill="#F5FF0B"/>
<path d="M147.423 133.231H141.231V139.423H147.423V133.231Z" fill="#F5FF0B"/>
<path d="M147.423 139.423H141.231V145.615H147.423V139.423Z" fill="#F5FF0B"/>
<path d="M147.423 145.615H141.231V151.808H147.423V145.615Z" fill="#F5FF0B"/>
<path d="M147.423 151.808H141.231V158H147.423V151.808Z" fill="#F5FF0B"/>
<path d="M153.615 133.231H147.423V139.423H153.615V133.231Z" fill="#F5FF0B"/>
<path d="M153.615 139.423H147.423V145.615H153.615V139.423Z" fill="#F5FF0B"/>
<path d="M153.615 145.615H147.423V151.808H153.615V145.615Z" fill="#F5FF0B"/>
<path d="M153.615 151.808H147.423V158H153.615V151.808Z" fill="#F5FF0B"/>
<path d="M159.808 133.231H153.615V139.423H159.808V133.231Z" fill="#F5FF0B"/>
<path d="M159.808 139.423H153.615V145.615H159.808V139.423Z" fill="#F5FF0B"/>
<path d="M159.808 145.615H153.615V151.808H159.808V145.615Z" fill="#F5FF0B"/>
<path d="M159.808 151.808H153.615V158H159.808V151.808Z" fill="#F5FF0B"/>
<path d="M141.231 -3H135.038V3.19231H141.231V-3Z" fill="#222623"/>
<path d="M147.423 -3H141.231V3.19231H147.423V-3Z" fill="#222623"/>
<path d="M153.615 -3H147.423V3.19231H153.615V-3Z" fill="#222623"/>
<path d="M159.808 -3H153.615V3.19231H159.808V-3Z" fill="#222623"/>
<path d="M166 133.231H159.808V139.423H166V133.231Z" fill="#F5FF0B"/>
<path d="M166 139.423H159.808V145.615H166V139.423Z" fill="#F5FF0B"/>
<path d="M166 145.615H159.808V151.808H166V145.615Z" fill="#F5FF0B"/>
<path d="M166 151.808H159.808V158H166V151.808Z" fill="#F5FF0B"/>
<path d="M166 -3H159.808V3.19231L166 3.19231V-3Z" fill="#222623"/>
<path d="M166 3.19231L159.808 3.19231V9.38462H166V3.19231Z" fill="#222623"/>
</g>
</svg>
