<svg width="25" height="24" viewBox="0 0 25 24" fill="none" xmlns="http://www.w3.org/2000/svg">
<g id="search-alt" clip-path="url(#clip0_95_79)">
<path id="Vector" d="M23.1239 20.8875L16.9364 15.8625C19.4864 12.375 19.2239 7.38749 16.0364 4.23749C14.3489 2.54999 12.0989 1.61249 9.69885 1.61249C7.29885 1.61249 5.04885 2.54999 3.36135 4.23749C-0.126147 7.72499 -0.126147 13.425 3.36135 16.9125C5.04885 18.6 7.29885 19.5375 9.69885 19.5375C11.9864 19.5375 14.1239 18.675 15.8114 17.1375L22.0739 22.2C22.2239 22.3125 22.4114 22.3875 22.5989 22.3875C22.8614 22.3875 23.0864 22.275 23.2364 22.0875C23.5364 21.7125 23.4989 21.1875 23.1239 20.8875ZM9.69885 17.85C7.74885 17.85 5.94885 17.1 4.56135 15.7125C1.71135 12.8625 1.71135 8.24999 4.56135 5.43749C5.94885 4.04999 7.74885 3.29999 9.69885 3.29999C11.6489 3.29999 13.4489 4.04999 14.8364 5.43749C17.6864 8.28749 17.6864 12.9 14.8364 15.7125C13.4864 17.1 11.6489 17.85 9.69885 17.85Z" fill="#78817A"/>
</g>
<defs>
<clipPath id="clip0_95_79">
<rect width="24" height="24" fill="white" transform="translate(0.098877)"/>
</clipPath>
</defs>
</svg>
